<?xml version="1.0" encoding="iso-8859-1"?>
<!-- Generator: Adobe Illustrator 19.0.0, SVG Export Plug-In . SVG Version: 6.00 Build 0)  -->
<svg version="1.1" id="Capa_1" xmlns="http://www.w3.org/2000/svg" xmlns:xlink="http://www.w3.org/1999/xlink" x="0px" y="0px" fill="white"
	 viewBox="0 0 512 512" style="enable-background:new 0 0 512 512;" xml:space="preserve">
<g>
	<g>
		<g>
			<polygon points="32.32,32 288.32,32 288.32,64 320.32,64 320.32,0 0.32,0 0.32,512 320.32,512 320.32,480 32.32,480 			"/>
			<path d="M161.6,350.72l120.688-30.16L511.68,91.2L421.12,0.64L191.76,230.048L161.6,350.72z M421.12,45.888L466.432,91.2
				l-22.624,22.576l-45.264-45.248L421.12,45.888z M375.92,91.2l45.2,45.2L274.032,283.488l-45.248-45.264L375.92,91.2z
				 M214.88,269.52l27.92,27.92l-37.232,9.296L214.88,269.52z"/>
			<rect x="288.32" y="352" width="32" height="32"/>
			<rect x="288.32" y="416" width="32" height="32"/>
			<rect x="64.32" y="96" width="192" height="32"/>
			<rect x="64.32" y="160" width="128" height="32"/>
			<rect x="64.32" y="224" width="96" height="32"/>
			<rect x="64.32" y="288" width="64" height="32"/>
		</g>
	</g>
</g>
<g>
</g>
<g>
</g>
<g>
</g>
<g>
</g>
<g>
</g>
<g>
</g>
<g>
</g>
<g>
</g>
<g>
</g>
<g>
</g>
<g>
</g>
<g>
</g>
<g>
</g>
<g>
</g>
<g>
</g>
</svg>
